<?xml version="1.0" standalone="no"?>
<!DOCTYPE svg PUBLIC "-//W3C//DTD SVG 20010904//EN"
 "http://www.w3.org/TR/2001/REC-SVG-20010904/DTD/svg10.dtd">
<svg version="1.0" xmlns="http://www.w3.org/2000/svg"
 width="2128.000000pt" height="650.000000pt" viewBox="0 0 2128.000000 650.000000"
 preserveAspectRatio="xMidYMid meet">

<g transform="translate(0.000000,650.000000) scale(0.100000,-0.100000)"
fill="#000000" stroke="none">
<path d="M8625 6483 c-347 -18 -746 -85 -1070 -178 -999 -289 -1749 -868
-2225 -1719 -328 -586 -499 -1297 -477 -1986 33 -1037 512 -1824 1362 -2236
788 -383 1880 -416 3110 -94 179 47 446 127 457 138 5 5 547 2844 623 3265 l7
37 -1146 0 c-630 0 -1146 -3 -1146 -6 0 -3 -45 -241 -100 -528 -55 -287 -100
-528 -100 -534 0 -9 121 -12 483 -14 l484 -3 -126 -663 -125 -662 -91 -29
c-353 -113 -859 -107 -1243 15 -218 70 -391 173 -548 329 -279 278 -414 659
-414 1172 0 612 185 1192 524 1643 84 113 263 300 362 380 325 261 736 427
1234 497 172 24 618 24 810 0 313 -40 662 -126 859 -213 30 -14 56 -22 59 -19
10 10 401 1129 396 1136 -7 12 -147 64 -275 102 -275 84 -647 143 -1034 167
-156 9 -504 11 -650 3z"/>
<path d="M12065 6408 c-2 -7 -270 -1415 -595 -3128 -325 -1713 -594 -3125
-597 -3138 l-5 -22 665 0 664 0 12 58 c6 31 96 505 201 1052 104 547 196 1000
202 1006 211 201 653 614 657 614 4 0 243 -613 532 -1362 l525 -1363 728 -3
c691 -2 728 -1 724 15 -3 10 -330 816 -728 1792 l-722 1773 65 67 c35 36 579
615 1207 1286 629 671 1175 1253 1214 1293 l70 72 -844 0 -845 -1 -884 -1060
c-858 -1028 -1229 -1482 -1359 -1662 -34 -48 -69 -87 -78 -87 -10 0 -14 6 -10
18 7 23 526 2767 526 2781 0 17 -1319 15 -1325 -1z"/>
</g>
</svg>
