<svg version="1.1" id="Layer_1" xmlns="http://www.w3.org/2000/svg" xmlns:xlink="http://www.w3.org/1999/xlink" x="0px" y="0px"
	 width="22px" height="36px" viewBox="7 0 22 36" enable-background="new 7 0 22 36" xml:space="preserve">
<path fill="#1976D2" d="M18,30c0,0-11-12.7-11-18.8C6.966,5.079,11.879,0.077,18,0c6.119,0.044,11.045,5.04,11,11.159
	c0,0.014,0,0.027,0,0.041C29,17.4,18,30,18,30z M18,28.5c3.4-4,10-12.9,10-17.3C28.033,5.631,23.568,1.077,18,1
	C12.431,1.077,7.966,5.631,8,11.2C8,15.6,14.6,24.4,18,28.5"/>
<path fill="#333333" d="M18,17c-3.313,0-6-2.687-6-6s2.687-6,6-6s6,2.687,6,6S21.313,17,18,17z M18,16c2.762,0,5-2.239,5-5
	s-2.238-5-5-5c-2.761,0-5,2.239-5,5S15.239,16,18,16"/>
<rect x="7" y="35" fill="#CCCCCC" width="22" height="1"/>
</svg>
