<svg version="1.1" id="Layer_1" xmlns="http://www.w3.org/2000/svg" xmlns:xlink="http://www.w3.org/1999/xlink" x="0px" y="0px"
	 width="25px" height="25px" viewBox="5 5 25 25" enable-background="new 5 5 25 25" xml:space="preserve">
<path fill="#1976D2" d="M24.707,30c-1.502,0-6.707-0.5-13.012-6.8C6.49,17.9,4.588,14,5.089,9.8C5.187,9.258,5.321,8.724,5.49,8.2
	c0.202-0.553,0.507-1.062,0.9-1.5L6.49,6.5l1.001-1C7.806,5.177,8.241,4.997,8.693,5l0,0c0.451-0.003,0.884,0.177,1.2,0.5l3.904,4
	c0.664,0.703,0.631,1.811-0.071,2.474c-0.01,0.009-0.02,0.018-0.028,0.026l-2.102,2.1l0.3,0.601
	c0.936,1.786,2.114,3.437,3.503,4.899c1.434,1.383,3.051,2.561,4.805,3.5l0.601,0.301l2.101-2.101
	c0.354-0.325,0.819-0.504,1.302-0.5l0,0c0.451-0.003,0.885,0.177,1.2,0.5l3.903,4c0.666,0.638,0.688,1.695,0.051,2.361
	c-0.048,0.05-0.098,0.096-0.149,0.139l-0.901,0.9l-0.2,0.2c-0.454,0.371-0.96,0.674-1.502,0.898C26.308,29.8,25.507,30,24.707,30z
	 M25.107,29c0.5-0.1,0.901-0.2,1.302-0.3c0.464-0.173,0.901-0.408,1.302-0.7l1.001-1c0.277-0.303,0.318-0.753,0.1-1.1l-3.902-4
	c-0.137-0.127-0.313-0.197-0.501-0.2c-0.216,0.005-0.426,0.073-0.601,0.2L21.704,24l-0.501,0.5c-2.266-1.219-4.381-2.695-6.306-4.4
	c-1.651-1.942-3.094-4.055-4.304-6.3l0.5-0.5l2.103-2.1c0.276-0.302,0.317-0.753,0.1-1.1l-3.904-4c-0.3,0-0.5-0.1-0.7-0.1
	C8.478,6.021,8.274,6.089,8.092,6.2l-0.9,0.9l0,0v0.1l0,0C6.849,7.62,6.579,8.093,6.39,8.6c-0.194,0.406-0.296,0.85-0.3,1.3
	c-0.5,3.9,1.402,7.6,6.406,12.6c6.005,6,10.909,6.5,12.311,6.5H25.107z"/>
<path fill="#CCCCCC" d="M19.001,10c3.315,0,6.006,2.687,6.006,6h1.001c0-3.866-3.137-7-7.007-7V10z"/>
<path fill="#CCCCCC" d="M19.001,6c5.527,0,10.01,4.477,10.01,10h1.001c0-6.075-4.93-11-11.011-11V6z"/>
<path fill="#CCCCCC" d="M19.001,13c1.657,0,3.003,1.343,3.003,3h1.001c0-2.209-1.793-4-4.004-4V13z"/>
</svg>
