<svg width="40" height="40" viewBox="0 0 40 40" fill="none" xmlns="http://www.w3.org/2000/svg">
<path d="M32.8125 37.6562H7.1875C4.54758 37.6562 2.34375 35.4524 2.34375 32.8125V29.375H3.28125V32.8125C3.28125 34.9412 5.05883 36.7188 7.1875 36.7188H32.8125C34.9416 36.7188 36.7188 34.9416 36.7188 32.8125V7.1875C36.7188 5.05789 34.942 3.28125 32.8125 3.28125H28.75V2.34375H32.8125C35.4524 2.34375 37.6562 4.54758 37.6562 7.1875V32.8125C37.6562 35.4524 35.4524 37.6562 32.8125 37.6562ZM3.28125 28.75H2.34375V27.8125H3.28125V28.75ZM3.28125 27.1875H2.34375V7.1875C2.34375 4.54758 4.54758 2.34375 7.1875 2.34375H28.125V3.28125H7.1875C5.05836 3.28125 3.28125 5.05828 3.28125 7.1875V27.1875Z" fill="#CCCCCC"/>
<path d="M28.873 27.7055C28.0098 27.7055 27.0698 27.6302 26.537 27.4152C26.0855 27.2385 25.5019 26.6531 24.5948 25.7102C24.1073 25.2035 23.3839 24.4514 23.0958 24.303C22.6523 24.4767 22.5768 25.4606 22.5262 26.1212C22.4754 26.7835 22.4419 27.221 22.0689 27.4024C21.2053 27.8055 18.7919 27.571 18.768 27.5684C18.7588 27.5674 18.7497 27.5662 18.7405 27.5647C15.0073 26.9428 12.8151 24.5559 10.6721 21.1632C6.89429 15.2616 7.13022 14.2756 7.20772 13.9515C7.22869 13.8511 7.27023 13.7561 7.32973 13.6725C7.38923 13.5889 7.46539 13.5186 7.55343 13.4659C7.55671 13.464 7.55999 13.462 7.56335 13.4602C8.26429 13.0706 9.84921 13.1052 11.6846 13.1455C11.8791 13.1497 12.0752 13.154 12.2713 13.1578H12.2818C12.8415 13.1813 13.2878 13.875 14.6698 16.87C14.9519 17.481 15.2181 18.0581 15.3387 18.2488C16.12 19.4975 16.4812 19.4635 16.4855 19.4624C16.593 19.4406 16.7472 19.1052 16.7805 18.9147C16.9646 16.9748 16.9044 15.6688 16.6017 15.0329C16.4204 14.6518 16.2169 14.6309 15.8798 14.5962C15.8266 14.591 15.7735 14.585 15.7205 14.5781C15.6525 14.5688 15.5874 14.5448 15.5296 14.5076C15.4719 14.4704 15.4231 14.421 15.3866 14.3629C15.3501 14.3048 15.3268 14.2394 15.3183 14.1712C15.3099 14.1031 15.3165 14.034 15.3377 13.9687C15.9571 12.0652 19.6519 12.2872 20.0712 12.3188C20.0968 12.3207 20.1223 12.3248 20.1473 12.3309C20.2822 12.3638 21.4706 12.661 21.9864 13.0151C22.4055 13.2799 22.5876 13.9604 22.5761 15.2147V15.2249C22.5694 15.4428 22.5605 15.6692 22.5521 15.8993C22.5218 16.7006 22.4905 17.5291 22.5262 18.2113C22.5687 19.021 22.6937 19.2754 22.7404 19.3435C22.9365 19.2917 23.6446 18.7004 24.8372 16.4524C25.0776 15.9914 25.3041 15.5253 25.5038 15.1142C26.1169 13.8527 26.3266 13.4477 26.6555 13.3224C26.9367 13.2124 27.5263 13.1917 28.9055 13.1682C29.0951 13.1649 29.2883 13.1617 29.482 13.1577H29.4916C31.0452 13.1577 32.0194 13.174 32.4507 13.4933C32.46 13.5002 32.4691 13.5074 32.478 13.5151C33.4107 14.3198 32.2991 16.071 31.0804 17.7959C30.8267 18.1653 30.4944 18.5727 30.1728 18.9667C29.6373 19.6229 28.8281 20.6145 28.8726 20.9918C28.8726 20.9951 28.8733 20.9985 28.8737 21.0017C28.9022 21.2986 29.7029 22.0728 30.2877 22.6382C31.5421 23.8513 32.9637 25.2261 32.744 26.5692C32.57 27.6762 31.2585 27.681 30.1014 27.6853C29.904 27.686 29.6998 27.6868 29.5054 27.6924C29.3044 27.7006 29.091 27.7055 28.873 27.7055ZM23.1035 23.3528C23.5801 23.3528 24.1162 23.8606 25.2705 25.0603C25.8255 25.6373 26.5858 26.4275 26.8833 26.544C27.31 26.7159 28.3726 26.8022 29.4712 26.7549C29.6838 26.7488 29.8941 26.748 30.0974 26.7471C30.8414 26.7444 31.7673 26.741 31.8179 26.4199C31.9585 25.5582 30.6705 24.3124 29.6355 23.3114C28.7252 22.4312 28.0058 21.7354 27.9407 21.0961C27.8533 20.3252 28.5916 19.4205 29.4461 18.3732C29.7698 17.9766 30.0755 17.6019 30.3109 17.2593C30.7538 16.6323 31.2992 15.8328 31.6194 15.1656C31.9333 14.5112 31.8889 14.2851 31.8705 14.2359C31.5591 14.0952 30.2758 14.0952 29.4961 14.0952C29.3031 14.0992 29.1102 14.1025 28.9212 14.1057C28.2455 14.1172 27.3392 14.1327 27.0477 14.1851C26.9026 14.381 26.5968 15.0103 26.347 15.5242C26.1445 15.9408 25.915 16.4131 25.6673 16.8888C25.3255 17.5332 24.8086 18.444 24.2779 19.1407C23.6841 19.9198 23.1885 20.2845 22.721 20.2845H22.6958C22.5804 20.2836 22.4665 20.2592 22.3609 20.2127C22.2554 20.1663 22.1604 20.0989 22.0817 20.0145C21.524 19.4354 21.5348 17.9953 21.6156 15.8644C21.6241 15.6378 21.6326 15.4159 21.6391 15.2017C21.6484 14.1302 21.4965 13.8429 21.4641 13.7939L21.46 13.7911C21.1926 13.603 20.4171 13.3652 19.963 13.2514C19.2218 13.2018 17.4181 13.232 16.6041 13.7959C16.9048 13.9138 17.218 14.1463 17.4484 14.6306C17.8365 15.4458 17.9204 16.8405 17.7126 19.0197C17.7118 19.028 17.7108 19.0362 17.7096 19.0444C17.7078 19.056 17.5269 20.2038 16.6771 20.3809C15.796 20.5645 15.0386 19.5371 14.5454 18.7485C14.393 18.5075 14.1396 17.9585 13.8188 17.2635C13.3923 16.3391 12.5219 14.4531 12.1515 14.0935C11.9886 14.0902 11.8258 14.0867 11.6642 14.0831C10.2658 14.0526 8.69194 14.0181 8.11389 14.2368C8.11616 14.5295 8.37124 15.8306 11.4634 20.6606C13.4705 23.8382 15.4998 26.0697 18.8809 26.638C19.6602 26.7194 21.0066 26.7374 21.5366 26.6005C21.5601 26.4629 21.5776 26.231 21.5913 26.0502C21.6658 25.0794 21.7783 23.6127 22.9754 23.3658C23.0176 23.3574 23.0605 23.3531 23.1035 23.3528Z" fill="#1976D2"/>
</svg>
